# xmcd
#
# Track frame offsets:
#	150
#	10260
#	17268
#	27009
#	33033
#	37308
#	45849
#	58064
#	70524
#	91500
#	99078
#	109431
#	113154
#	120783
#
# Disc length: 1775 seconds
#
# Revision: 0
# Processed by: cddbd v1.5.2PL0 Copyright (c) Steve Scherf et al.
# Submitted via: EZCDAudioConverter 7.0.6.1
#
DISCID=9206ed0e
DTITLE=V/A - That Darn Cat!
DYEAR=1900
DGENRE=
TTITLE0=Louis Prima - That Darn Cat
TTITLE1=Bob Brunner - Hoodlum's Hide-Out
TTITLE2=Bob Brunner - Patti
TTITLE3=Bob Brunner - Mom's In Distress
TTITLE4=Bob Brunner - Snoopy's Theme
TTITLE5=Bob Brunner - Kitchens To Burn
TTITLE6=Bob Brunner - Surf-In
TTITLE7=Bob Brunner - Ten Foot Surf
TTITLE8=Bob Brunner - Four Footed Informant
TTITLE9=Bob Brunner - Still Nine Lives To Go
TTITLE10=Bob Brunner - ABC's Of The F.B.I.
TTITLE11=Bob Brunner - Cat Scat
TTITLE12=Bob Brunner - Take This And This An This
TTITLE13=Bobby Troup and Trio - That Darn Cat
EXTD=
EXTT0=
EXTT1=
EXTT2=
EXTT3=
EXTT4=
EXTT5=
EXTT6=
EXTT7=
EXTT8=
EXTT9=
EXTT10=
EXTT11=
EXTT12=
EXTT13=
PLAYORDER=
